<svg xmlns="http://www.w3.org/2000/svg" viewBox="0 0 500 500"><g id="freepik--background-complete--inject-49"><rect x="84.01" width="0.8" height="93.78" style="fill:#c7c7c7"></rect><polygon points="117.36 125.55 114.71 131.38 54.1 131.38 51.46 125.55 77.26 107.69 91.56 107.69 117.36 125.55" style="fill:#ebebeb"></polygon><polygon points="93.35 90.48 91.56 107.69 77.26 107.69 75.47 90.48 93.35 90.48" style="fill:#dbdbdb"></polygon><polygon points="117.36 125.55 114.71 131.38 54.1 131.38 51.45 125.55 117.36 125.55" style="fill:#dbdbdb"></polygon><rect x="154.77" width="0.8" height="74.99" style="fill:#c7c7c7"></rect><polygon points="188.12 106.75 185.47 112.58 124.86 112.58 122.21 106.75 148.02 88.89 162.31 88.89 188.12 106.75" style="fill:#ebebeb"></polygon><polygon points="164.1 71.68 162.31 88.89 148.02 88.89 146.23 71.68 164.1 71.68" style="fill:#dbdbdb"></polygon><polygon points="188.11 106.75 185.46 112.58 124.85 112.58 122.21 106.75 188.11 106.75" style="fill:#dbdbdb"></polygon><path d="M432.09,316,419,316.3l-6.66.12c-2.23,0-4.47,0-6.7.05h-.44V316l-.06-11.18v-.51h.5l13.24.06c4.42,0,8.83.11,13.24.16h.28v.27c0,1.89-.09,3.78-.13,5.65Zm0,0-.14-5.65c0-1.86-.11-3.7-.13-5.53l.27.27c-4.41.05-8.82.16-13.24.16l-13.24.06.5-.49L406.06,316l-.45-.44c2.18,0,4.36,0,6.55.05l6.58.12Z" style="fill:#ebebeb"></path><path d="M417.32,330.13l-13.12.28-6.66.12c-2.23,0-4.47,0-6.7.05h-.44v-.45l-.06-11.19v-.5h.5l13.24.06c4.41,0,8.83.11,13.24.16h.28v.26c0,1.9-.08,3.79-.13,5.66Zm0,0-.14-5.65c-.05-1.86-.11-3.7-.13-5.54l.27.28c-4.41,0-8.83.16-13.24.16l-13.24.06.5-.5,0,11.19-.45-.44c2.18,0,4.36,0,6.55.05l6.58.12Z" style="fill:#ebebeb"></path><path d="M447.55,330.13l-13.12.28-6.66.12c-2.23,0-4.47,0-6.7.05h-.44v-.45l-.06-11.19v-.5h.5l13.24.06c4.41,0,8.83.11,13.24.16h.28v.26c0,1.9-.08,3.79-.13,5.66Zm0,0-.14-5.65c-.05-1.86-.11-3.7-.13-5.54l.27.28c-4.41,0-8.83.16-13.24.16l-13.24.06.5-.5-.05,11.19-.45-.44c2.18,0,4.36,0,6.55.05l6.58.12Z" style="fill:#ebebeb"></path><path d="M346.58,230.59l-13.13.28-6.66.11c-2.22.05-4.46,0-6.69.06h-.45v-.45l0-11.19v-.5h.51l13.24.06c4.41,0,8.82.11,13.24.16h.27v.27c0,1.9-.09,3.79-.13,5.66Zm0,0-.14-5.65c-.05-1.86-.12-3.7-.14-5.54l.28.28c-4.42,0-8.83.16-13.24.16l-13.24.06.5-.5-.06,11.19-.44-.44c2.18,0,4.35,0,6.54,0l6.58.12Z" style="fill:#ebebeb"></path><path d="M79.16,330.13,66,330.41l-6.66.12c-2.23,0-4.46,0-6.7.05h-.44v-.45l0-11.19v-.5h.5l13.24.06c4.42,0,8.83.11,13.25.16h.27v.26c0,1.9-.09,3.79-.13,5.66Zm0,0L79,324.48c0-1.86-.11-3.7-.13-5.54l.28.28c-4.42,0-8.83.16-13.25.16l-13.24.06.5-.5-.05,11.19-.45-.44c2.19,0,4.36,0,6.55.05l6.58.12Z" style="fill:#ebebeb"></path><path d="M412.15,56.06,399,56.34l-6.66.11c-2.22,0-4.46,0-6.69.06h-.44v-.45l-.05-11.19v-.5h.5l13.24.06c4.41,0,8.83.12,13.24.17h.28v.27c0,1.9-.08,3.79-.13,5.65Zm0,0L412,50.41c-.05-1.87-.11-3.71-.13-5.54l.27.27c-4.41,0-8.83.16-13.24.17l-13.24.06.5-.5-.06,11.19-.44-.45c2.18,0,4.36,0,6.54.06l6.58.11Z" style="fill:#ebebeb"></path><path d="M426.92,70.17l-13.12.28-6.66.11c-2.23,0-4.47,0-6.7.06H400v-.45L399.94,59v-.5h.5l13.24.06c4.41,0,8.83.12,13.24.17h.28V59c0,1.9-.08,3.79-.13,5.65Zm0,0-.14-5.65c0-1.87-.11-3.71-.13-5.54l.27.27c-4.41,0-8.83.16-13.24.17l-13.24.06.5-.5-.05,11.19-.45-.45c2.18,0,4.36,0,6.55.06l6.58.11Z" style="fill:#ebebeb"></path><path d="M179.32,170.32l-13.12.28-6.66.11c-2.23,0-4.47,0-6.7.06h-.44v-.45l-.06-11.19v-.5h.5l13.24.07c4.42,0,8.83.11,13.24.16h.28v.27c0,1.9-.09,3.79-.13,5.66Zm0,0-.14-5.65c0-1.86-.11-3.7-.13-5.54l.27.28c-4.41.05-8.82.16-13.24.16l-13.24.06.5-.5-.05,11.19-.45-.44c2.18,0,4.36,0,6.55.05L166,170Z" style="fill:#ebebeb"></path><path d="M194.09,184.43l-13.12.28-6.66.11c-2.23.05-4.46,0-6.7.06h-.44v-.45l-.06-11.19v-.5h.5l13.24.07c4.42,0,8.83.11,13.24.16h.28v.27c0,1.9-.09,3.79-.13,5.66Zm0,0-.14-5.65c0-1.86-.11-3.71-.13-5.54l.27.28c-4.41,0-8.82.16-13.24.16l-13.24.06.5-.5-.05,11.19-.45-.44c2.19,0,4.36,0,6.55,0l6.58.11Z" style="fill:#ebebeb"></path><path d="M84.48,84.2l-13.12.28-6.66.11c-2.23,0-4.47,0-6.7.06h-.44V84.2L57.5,73v-.5H58l13.24.06c4.42,0,8.83.12,13.24.17h.28V73c0,1.9-.09,3.79-.13,5.65Zm0,0-.14-5.65c0-1.87-.11-3.71-.13-5.54l.27.27c-4.41,0-8.82.16-13.24.17L58,73.51l.5-.5,0,11.19L58,83.75c2.18,0,4.36,0,6.55.06l6.58.11Z" style="fill:#ebebeb"></path><path d="M376.48,148.78H434.2V206.5H376.48Zm55,2.72H379.2v52.28h52.28Z" style="fill:#ebebeb"></path><rect x="389.32" y="159.27" width="18.07" height="40.75" transform="translate(796.72 359.29) rotate(180)" style="fill:#ebebeb"></rect><rect x="394.9" y="167.2" width="20.88" height="20.88" transform="translate(810.67 355.29) rotate(180)" style="fill:#c7c7c7"></rect><rect x="404.04" y="178.94" width="2.6" height="57.72" transform="translate(613.14 -197.53) rotate(90)" style="fill:#dbdbdb"></rect><rect x="396.57" y="217.47" width="13.65" height="39.43" transform="translate(166.21 640.58) rotate(-90)" style="fill:#c7c7c7"></rect><path d="M376.48,218.66H434.2v57.72H376.48Zm55,2.72H379.2v52.28h52.28Z" style="fill:#ebebeb"></path><rect x="394.9" y="237.08" width="20.88" height="20.88" transform="translate(810.67 495.03) rotate(180)" style="fill:#ebebeb"></rect><rect x="404.04" y="248.81" width="2.6" height="57.72" transform="translate(683.01 -127.66) rotate(90)" style="fill:#dbdbdb"></rect><rect x="407.2" y="87.42" width="17.15" height="28.69" style="fill:#ebebeb"></rect><path d="M376.48,78.91H434.2v57.72H376.48Zm55,2.72H379.2v52.28h52.28Z" style="fill:#ebebeb"></path><rect x="394.9" y="97.33" width="20.88" height="20.88" transform="translate(810.67 215.54) rotate(180)" style="fill:#c7c7c7"></rect><rect x="404.04" y="109.07" width="2.6" height="57.72" transform="translate(543.27 -267.41) rotate(90)" style="fill:#dbdbdb"></rect><polygon points="440.66 404.5 343.48 404.5 339.56 327.19 444.58 327.19 440.66 404.5" style="fill:#ebebeb"></polygon><path d="M351.08,335.74h82l-1.48,26.84H352.81Zm81,.95H352.1l1.6,24.93h77Z" style="fill:#dbdbdb"></path><path d="M352.75,369.23H429.7l-1.21,24.22H354.26Zm75.95.95H353.76l1.39,22.32h72.44Z" style="fill:#dbdbdb"></path><path d="M383.77,345.59h14.91l-.84,6.48H384.61Zm13.83,1H384.85l.59,4.57H397Z" style="fill:#dbdbdb"></path><path d="M383.77,378.1h14.91l-.84,6.48H384.61Zm13.83.95H384.85l.59,4.57H397Z" style="fill:#dbdbdb"></path><polygon points="423.76 404.5 424.94 412.92 427.32 429.84 431.98 429.84 431.98 404.5 423.76 404.5" style="fill:#ebebeb"></polygon><polygon points="423.76 404.5 424.94 412.92 431.98 412.92 431.98 404.5 423.76 404.5" style="fill:#dbdbdb"></polygon><polygon points="360.38 404.5 359.19 412.92 356.81 429.84 352.16 429.84 352.16 404.5 360.38 404.5" style="fill:#ebebeb"></polygon><polygon points="360.38 404.5 359.19 412.92 352.16 412.92 352.16 404.5 360.38 404.5" style="fill:#dbdbdb"></polygon></g><g id="freepik--Floor--inject-49"><polygon points="41.45 430.29 93.59 430.05 145.73 429.96 250 429.79 354.27 429.96 406.41 430.05 458.55 430.29 406.41 430.54 354.27 430.63 250 430.79 145.73 430.63 93.59 430.54 41.45 430.29" style="fill:#263238"></polygon></g><g id="freepik--Shadow--inject-49"><ellipse cx="250" cy="453.48" rx="172.28" ry="15.85" style="fill:#ebebeb"></ellipse></g><g id="freepik--Plant--inject-49"><path d="M89.31,332a80.5,80.5,0,0,1,1.85-13c.92-3.86,2.23-7.81,4.66-11a13.94,13.94,0,0,1,9.13-5.68c3.57-.44,6.93,1.15,9.61,3.4,3.31,2.79,5.85,6.49,8.23,10.07a123.41,123.41,0,0,1,7.11,12.45c.07.14-.15.26-.22.11a76.45,76.45,0,0,0-6.36-10.41,64.73,64.73,0,0,0-7.32-8.87c-2.45-2.39-5.57-4.63-9.13-4.74a11.19,11.19,0,0,0-8.93,4.6c-2.38,3-3.59,6.85-4.5,10.56a78.7,78.7,0,0,0-1.83,12.41c-.7,8.59-.89,17.22-1.09,25.83-.11,4.88-.17,9.75-.22,14.62l-.06,7.41A44.76,44.76,0,0,1,90,386.9c-.08.48-.87.43-.95,0a42.48,42.48,0,0,1-.32-6.77q-.06-3.51-.09-7-.06-6.82,0-13.65C88.58,350.31,88.69,341.14,89.31,332Z" style="fill:#263238"></path><path d="M101.58,325.56c.46-2.43,1.28-5.59,2.66-7.48,2.48-3.38,5.17-1.91,2.69,1.84a22.3,22.3,0,0,0-3.49,9.23s4.18,6,9.22,8.9c-.22-2.29-.86-5.82-.42-9.22,1-7.38,5.43-7,4.33-1.11a50.56,50.56,0,0,0-1,11.85,25.35,25.35,0,0,0,5.39,2.64c-.29-.85-.6-1.88-.94-3.12-1.79-6.61,2.62-8.68,2.76-5a51.6,51.6,0,0,0,1.72,9.38c2.42.81,4.42,1.37,5.65,1.8a20.7,20.7,0,0,1,8.27,5.65,26.19,26.19,0,0,0,5.63-7.29c-1.54-1.33-4-3.3-7.36-5.69-6.34-4.47-4.13-10.12.9-6.61,3.63,2.54,6.43,7.24,7.71,9.65a39.29,39.29,0,0,0,2.88-13.2c-5-4.67-17.29-11.19-13.58-11.19,3.34,0,10.81,4.9,13.55,6.79a33.66,33.66,0,0,0-.42-3.84c-4.69-3.07-19.93-7.85-17.5-9.23,2.67-1.5,13.3,3.42,16.51,5a19.24,19.24,0,0,0-2.81-5.84c-6.48-8.67-18.17-11.66-23.26-10-3.61,1.17-2.56,10.32-3.33,10C102.84,303.66,96.25,307.78,101.58,325.56Zm35.52-1c1-1.25,5.78,2.41,4.4,4.4S135.77,326.15,137.1,324.56Zm-24.85-7.81c1.25.8-.6,5.42-2.53,4C108.08,319.58,111,316,112.25,316.75Z" style="fill:#7F3E98"></path><path d="M114.15,318.17c.65-1.3,1.33-2.58,2.08-3.82a22.58,22.58,0,0,1,2.39-3.48c-.2-.25-.4-.51-.61-.76s.06-.24.15-.14c.24.27.47.56.71.84a.29.29,0,0,1,.1.12c.89,1.07,1.74,2.18,2.54,3.3a41.29,41.29,0,0,1,4.21,1.22c1.42.48,2.83,1,4.21,1.56.14.06.07.29-.07.23-1.37-.6-2.76-1.19-4.18-1.67s-2.7-.8-4.06-1.19c.44.63.87,1.26,1.29,1.9a50,50,0,0,1,7.44,3c2.52,1.2,4.94,2.58,7.34,4,.14.08,0,.29-.13.21a76.35,76.35,0,0,0-7.3-3.78c-2.33-1.1-4.74-2-7.09-3,5.92,9.23,9.47,19.89,14.21,29.75.07.15-.16.26-.22.12-1.44-3.46-3.11-6.83-4.69-10.23-1.42-3.06-2.8-6.13-4.22-9.18-.41-.9-.84-1.79-1.27-2.68.26,4.93.15,9.95,1,14.82a.12.12,0,1,1-.24,0c-.34-5.27-1.27-10.46-1.23-15.76,0,0,0,0,0-.07-1-2-2.08-4-3.23-5.93-2,4.61-4,9.3-4.94,14.25,0,.15-.28.09-.23-.07,1.33-5,2.56-9.94,5-14.53a58,58,0,0,0-4.17-6c-.66,1.23-1.5,2.39-2.25,3.56s-1.45,2.3-2.12,3.48a50.33,50.33,0,0,0-3.7,7.82c-.06.15-.3.07-.24-.07C111.71,323.36,112.86,320.72,114.15,318.17Z" style="fill:#263238"></path><path d="M67.51,329.39c3.79-3.8,8.21-8.8,14.08-8.79,5.66,0,9.83,4.57,12.22,9.27,2.51,4.92,3.41,10.49,4.11,15.91a191.06,191.06,0,0,1,1.5,19.56c.11,3.63.09,7.27,0,10.9a72.36,72.36,0,0,1-.83,11,.55.55,0,0,1-1.08,0c-.17-3.06-.05-6.13,0-9.19s0-6-.14-9c-.23-6.09-.67-12.18-1.39-18.23-.62-5.29-1.12-10.73-2.7-15.84-1.43-4.61-4.1-9.88-8.78-11.91-6.37-2.76-12.6,2.29-16.77,6.55C67.59,329.66,67.4,329.51,67.51,329.39Z" style="fill:#263238"></path><path d="M48.14,337.9h0c0,.78.07,1.55.12,2.3a13.76,13.76,0,0,1,6.23-2.58c5.38-.57,5,3.53,1.44,3.7a20.47,20.47,0,0,0-7.39,1.48c.88,7.12,2.83,12.84,3.13,12.91a103.91,103.91,0,0,0,14.23-1.79c-1.33-2.86-4.39-6.65-2.83-7s3.25,3.07,4.12,6.7a68.76,68.76,0,0,0,10.35-2.85c-2.37-2.06-6-4.61-4.63-5.7s4.31,2.51,6,5.12a20.61,20.61,0,0,0,4.47-2.49c-3.19-4.69-11-5.65-10-9S81.77,340,85,346.3c3.84-4,5-9.62,4.56-14.43-3.34-.39-9.78.31-9.31-2.09s5.11-1.94,8.92-.54A13.36,13.36,0,0,0,87,324c-3.53-4.53-14.29,1.23-14.29,1.23s1.15-10.82-3-12.69c-2.36-1.07-6.54-1.06-10.72,1.4,2.35.2,5.18.94,6.32,2.57,1.46,2.08-.84,3.21-2.3,2.25-1-.68-3-2.82-6.43-3.1a21,21,0,0,0-3.88,4.3c-.4.56-.77,1.15-1.14,1.79a14.78,14.78,0,0,1,12.6.22c4.66,2.32,2,7.16-2,5.28s-7.83-3.73-12.09-2.66a30,30,0,0,0-2,12A21.09,21.09,0,0,1,55,333.28c4.63-1.22,6,1.55.94,2.07A20.4,20.4,0,0,0,48.14,337.9Zm5.64-7.44c-.32-1.5,3-1.93,3.51-.72C57.75,330.78,54.09,332,53.78,330.46Zm28.13,8.32c.31-.82,2.51.11,2.31,1.13C84,341.28,81.61,339.6,81.91,338.78Zm-15.53,5.27c1.6-.64,4.11,3.34,2.36,4.26S65.07,344.58,66.38,344.05Z" style="fill:#7F3E98"></path><path d="M52.3,354.9c2.41-4,4.8-8.1,7.34-12.06,1.18-1.85,2.42-3.66,3.7-5.44l-.57-.13-1-.19c-.74-.13-1.49-.24-2.24-.31s-1.41-.11-2.12-.12a10.65,10.65,0,0,0-2.26.12.06.06,0,1,1,0-.12c.75,0,1.52-.07,2.28-.08s1.47,0,2.2.05a20.26,20.26,0,0,1,2.06.22c.37.05.75.12,1.12.19s.46.08.68.15q2-2.7,4.07-5.3a48.46,48.46,0,0,0-13.22-4.22c-.08,0-.05-.13,0-.12a45,45,0,0,1,13.42,4.07l2.33-2.83c.87-1,1.81-2.08,2.6-3.19,0-.08.16,0,.1.07a46.39,46.39,0,0,0-3.07,3.75h0a46.74,46.74,0,0,1,4.92,3.95c1.61,1.42,3.18,2.9,4.7,4.41.06.06,0,.14-.08.09-1.51-1.5-3.07-2.93-4.71-4.29s-3.35-2.6-5-3.94a0,0,0,0,1,0,0c-.38.5-.75,1-1.13,1.48l-.57.75,0,.05L66,334.35a19.38,19.38,0,0,1,1.86,3.37c.54,1.14,1,2.32,1.45,3.5a52.49,52.49,0,0,1,2,7.57c0,.08-.11.12-.12,0a44.53,44.53,0,0,0-2.2-7.42c-.47-1.24-1-2.44-1.56-3.64s-1.11-2.15-1.58-3.25c-.54.72-1.08,1.44-1.61,2.17l-.45.64c0,.05,0,.11-.06.11h0c-1.66,2.32-3.24,4.69-4.78,7.09a2,2,0,0,1,.21.53c.1.29.19.58.28.88a18.1,18.1,0,0,1,.42,1.8c.1.57.19,1.14.24,1.72a14,14,0,0,0,.15,2c0,.1-.14.11-.12,0a6.66,6.66,0,0,0-.14-1.83c-.08-.62-.2-1.24-.34-1.86s-.28-1.1-.45-1.65c-.08-.27-.17-.55-.26-.82s-.12-.29-.17-.44c-.72,1.13-1.43,2.26-2.14,3.4-1.39,2.26-2.76,4.52-4.15,6.78A.1.1,0,1,1,52.3,354.9Z" style="fill:#263238"></path><path d="M89.56,385.93c.07-2.29.43-4.6.68-6.87s.5-4.58.75-6.86A103.21,103.21,0,0,1,92.76,359a19.32,19.32,0,0,1,5.38-9.91,8.86,8.86,0,0,1,5.29-2.52,9.14,9.14,0,0,1,5.61,1.73,19.54,19.54,0,0,1,4.71,5,48.21,48.21,0,0,1,3.68,6c0,.07-.08.12-.13.05a30.55,30.55,0,0,0-8-8.92,9.43,9.43,0,0,0-5-2.09,6.83,6.83,0,0,0-4.86,1.94c-2.67,2.32-4.22,5.74-5.14,9.09a93.59,93.59,0,0,0-2,12.23c-.32,2.42-.63,4.85-1,7.27s-.52,4.88-1,7.26A.4.4,0,0,1,89.56,385.93Z" style="fill:#263238"></path><path d="M100.83,368.15a12.69,12.69,0,0,0,2.49,2.54c-.38-2.23-.84-6.2.29-8.32,1.75-3.28,3.83-1.64,2.78,1.21a23.14,23.14,0,0,0-1.68,8.09,35.46,35.46,0,0,0,7.6,3.59,12.77,12.77,0,0,1-.25-3.91c.35-3.51,3-3.45,2.34.2a23.22,23.22,0,0,0-.37,4.29,79.06,79.06,0,0,0,11.86,2.67,34.6,34.6,0,0,0,4.9-8.73c-2.85-.72-8.64-.88-8.51-2.92.16-2.75,5.76-.63,9,1.36a21.77,21.77,0,0,0,1-7.39,36.48,36.48,0,0,0-7.88-1.3c-5.88-.51-5.59-3.85-1.33-3.77,3.15.06,7.13,2,9,3-1.23-8-7.33-13.12-12.22-13.32-8.23-.33-5.27,9.91-5.27,9.91s-5.57-3.93-10.83-3.82S95.2,360.32,100.83,368.15Zm22-14.8c-.19-1.15,3.49-1.43,3.68,0C126.7,355.06,123,354.52,122.8,353.35Zm5.9,12c-.07-.75,1.51-.88,1.87.06C130.81,366,128.77,366.1,128.7,365.36Zm-19.75.7c1.24.18,2,4.61-.19,4.52C107.13,370.51,107.9,365.91,109,366.06Z" style="fill:#7F3E98"></path><path d="M110.67,371c.2-.55.38-1.11.56-1.67-.16.57-.3,1.14-.41,1.71A.08.08,0,1,1,110.67,371Z" style="fill:#263238"></path><path d="M112.84,363.86c.38-1.14.82-2.26,1.26-3.38.23-.59.48-1.18.74-1.77a7.27,7.27,0,0,1,.73-1.48,10.33,10.33,0,0,1-.66-1.44,0,0,0,0,1,.07,0,16.14,16.14,0,0,1,1.6,2.48c.23.39.45.79.67,1.18a10.58,10.58,0,0,1,1.39.21q.73.13,1.47.3l1.47.34a14.76,14.76,0,0,0,1.46.35c.11,0,.06.2,0,.16a9.18,9.18,0,0,0-1.54-.4c-.48-.11-.95-.19-1.43-.26s-1-.12-1.43-.17-.73-.06-1.09-.09c.19.34.4.68.59,1l.09.17a4.76,4.76,0,0,1,1.18.14c.42.07.85.16,1.27.25.86.19,1.71.39,2.56.63,1.78.49,3.54,1.06,5.29,1.64.1,0,0,.18-.06.14a51,51,0,0,0-5.32-1.47l-2.52-.56-1.27-.27a8.33,8.33,0,0,1-1-.22q1.36,2.52,2.55,5.11c1.7,3.77,3.14,7.66,4.6,11.53a.08.08,0,0,1-.15.07,103.31,103.31,0,0,0-4.9-11.28c-.33-.67-.66-1.34-1-2,0,.13-.06.27-.08.41-.09.45-.17.91-.25,1.37-.15.92-.31,1.83-.44,2.75A32.58,32.58,0,0,0,118,375c0,.12-.17.11-.15,0,.14-.91.14-1.86.2-2.78s.13-1.93.24-2.89.23-1.84.38-2.76l.24-1.38a2.79,2.79,0,0,1,.26-1c-.48-1-1-1.94-1.45-2.9s-.92-1.81-1.39-2.7c-.19-.38-.41-.77-.62-1.15a10.17,10.17,0,0,1-.55,1.38l-.63,1.56c-.47,1.15-.91,2.31-1.35,3.47-.62,1.64-1.31,3.33-1.82,5C111.85,367.23,112.28,365.52,112.84,363.86Z" style="fill:#263238"></path><path d="M111.23,369.31l.12-.4Z" style="fill:#263238"></path><polygon points="75.81 381.48 76.39 393.72 77.88 425.28 110.44 425.28 111.93 393.72 112.51 381.48 75.81 381.48" style="fill:#37474f"></polygon><polygon points="75.81 381.48 76.39 393.72 111.93 393.72 112.51 381.48 75.81 381.48" style="fill:#263238"></polygon><rect x="73.49" y="376.53" width="41.33" height="9.9" transform="translate(188.31 762.95) rotate(180)" style="fill:#37474f"></rect><rect x="102.09" y="425.28" width="5.72" height="5.18" style="fill:#37474f"></rect><rect x="102.09" y="425.28" width="5.72" height="2.59" style="fill:#263238"></rect><rect x="80.51" y="425.28" width="5.71" height="5.18" style="fill:#37474f"></rect><rect x="80.51" y="425.28" width="5.71" height="2.59" style="fill:#263238"></rect></g><g id="freepik--Character--inject-49"><rect x="210.32" y="408.46" width="53.65" height="3.31" style="fill:#c7c7c7"></rect><polygon points="259.5 293.34 259.78 309.02 261.6 408.46 261.65 411.77 262.45 455.42 265.49 455.42 266.29 411.77 266.35 408.46 268.16 309.02 268.44 293.34 259.5 293.34" style="fill:#c7c7c7"></polygon><polygon points="268.44 293.34 259.5 293.34 259.78 309.02 268.16 309.02 268.44 293.34" style="fill:#a6a6a6"></polygon><polygon points="205.85 293.34 206.14 309.02 208.81 455.42 211.84 455.42 212.64 411.77 212.7 408.46 214.51 309.02 214.8 293.34 205.85 293.34" style="fill:#c7c7c7"></polygon><polygon points="205.85 293.34 206.14 309.02 214.51 309.02 214.8 293.34 205.85 293.34" style="fill:#a6a6a6"></polygon><rect x="238.1" y="408.46" width="52.67" height="3.31" style="fill:#c7c7c7"></rect><polygon points="286.3 293.34 286.58 309.02 288.39 408.46 288.45 411.77 289.25 455.42 292.29 455.42 294.96 309.02 295.24 293.34 286.3 293.34" style="fill:#c7c7c7"></polygon><polygon points="295.24 293.34 286.3 293.34 286.58 309.02 294.96 309.02 295.24 293.34" style="fill:#a6a6a6"></polygon><polygon points="233.63 293.34 233.91 309.02 235.72 408.46 235.78 411.77 236.58 455.42 239.62 455.42 240.41 411.77 240.47 408.46 242.29 309.02 242.57 293.34 233.63 293.34" style="fill:#c7c7c7"></polygon><polygon points="242.57 293.34 233.63 293.34 233.91 309.02 242.29 309.02 242.57 293.34" style="fill:#a6a6a6"></polygon><rect x="201.2" y="274.01" width="97.6" height="20.22" style="fill:#7F3E98"></rect><rect x="221.58" y="274.01" width="77.22" height="20.22" style="fill:#263238;opacity:0.1"></rect><path d="M351.38,300c-.75-2.28-41.07-55.55-43.82-56.57-.32-.14-18.34,12.69-18.34,12.69-.74,1-35-6.25-35-6.25l-.34,41.32,62.4-1.32s8.43,4.95,16.14,9c0,0,0,0,0,0a92.16,92.16,0,0,0,10.14,4.92C345.71,304.56,352.15,302.24,351.38,300Z" style="fill:#f7a9a0"></path><path d="M342.59,303.76a90.24,90.24,0,0,1-10.14-4.92s0,0,0,0c-7.7-4-16.13-9-16.13-9l-13.89.3-21.74-35.08c4.77.84,8.33,1.35,8.57,1,0,0,18-12.82,18.33-12.68,2.75,1,43.06,54.29,43.82,56.56S345.71,304.57,342.59,303.76Z" style="fill:#fff"></path><path d="M351.75,300.05c-.79-2.34-41.29-55.57-44.12-56.63-1.07-.4-9.88,5-18.41,12.68l26.15,34.29s24.13,12.78,27.35,13.6S352.54,302.38,351.75,300.05Z" style="fill:#7F3E98"></path><path d="M349,300.9c-7-8.75-34.45-44.74-40.71-53.93-.05-.07,0-.11.06,0,7.13,8.53,34.28,44.73,40.8,53.86C349.32,301,349.19,301.09,349,300.9Z" style="fill:#263238"></path><path d="M338.2,302a9,9,0,0,1-1.88-7,8.72,8.72,0,0,1,3.25-5.62c.05,0,.13.06.08.11a10.41,10.41,0,0,0-1.33,12.42C338.37,302,338.26,302.09,338.2,302Z" style="fill:#263238"></path><path d="M318.4,292.51c-2.77-3.54-4.66-8.64-3.43-13.08,0-.17.3-.1.32.05a62.33,62.33,0,0,0,3.59,12.75A.28.28,0,0,1,318.4,292.51Z" style="fill:#263238"></path><path d="M321.57,294.45c-2.77-3.54-4.66-8.64-3.42-13.08,0-.17.29-.1.31.05a62.35,62.35,0,0,0,3.6,12.75A.29.29,0,0,1,321.57,294.45Z" style="fill:#263238"></path><path d="M324.74,296.39c-2.76-3.54-4.65-8.64-3.42-13.08.05-.17.29-.1.32,0a61.61,61.61,0,0,0,3.59,12.76A.29.29,0,0,1,324.74,296.39Z" style="fill:#263238"></path><path d="M327.92,298.32c-2.77-3.53-4.66-8.63-3.43-13.07.05-.17.29-.1.32,0a62.24,62.24,0,0,0,3.59,12.76A.28.28,0,0,1,327.92,298.32Z" style="fill:#263238"></path><path d="M301.58,255.69c-3-4,3.2-8.74,6.25-4.72S304.63,259.72,301.58,255.69Z" style="fill:#263238"></path><path d="M316.82,299.35c1-3.82.35-8,.18-11.83a.55.55,0,0,0-.78-.42.12.12,0,0,0-.19,0,23.65,23.65,0,0,0-6.66,10.2c-.71,2.3-.44,5.69,2.43,6.36C314.52,304.25,316.23,301.58,316.82,299.35ZM314,301.76c-4.16,2.61-3.84-3.17-3.25-4.84a25.34,25.34,0,0,1,1.42-3.14,68.36,68.36,0,0,1,3.76-6c0,1.91.1,3.81.14,5.72C316.11,295.74,316.28,300.33,314,301.76Z" style="fill:#263238"></path><path d="M304.11,276.11c-2.12,2.06-.6,5.1,1.19,6.71a23.53,23.53,0,0,0,11,5.29.11.11,0,0,0,.14-.12.55.55,0,0,0,.45-.76c-1.85-3.42-3.41-7.3-6.25-10.05C309,275.58,306.11,274.17,304.11,276.11Zm8.88,6.51c.95,1.66,1.82,3.35,2.83,5-2.14-1-4.31-2-6.34-3.24a25,25,0,0,1-2.83-2c-1.37-1.13-4.62-5.91.28-5.83C309.64,276.62,311.86,280.64,313,282.62Z" style="fill:#263238"></path><path d="M252.34,237.18h-28s-29.3-14.09-52.9-8.41c-27.05,6.5-30.51,40.48-10.29,52.5,25.62,15.22,139.63,12.27,139.63,12.27l-24.65-41.77s-37.91-8-72.29-6.82l48.51,6.61Z" style="fill:#455a64"></path><path d="M277.77,254.46a1.29,1.29,0,0,1-.06-.21.85.85,0,0,0,0-.17c0-.14-.07-.27-.11-.41a6.62,6.62,0,0,0-.28-.82c-.11-.27-.22-.53-.35-.79a7,7,0,0,0-.46-.74l-.07,0a.08.08,0,0,0,0,0l-.06,0-.06,0c-4.17-.77-32.5-4.83-36.72-5.31s-8.5-.88-12.76-1.23a250.85,250.85,0,0,0-25.57-.92c-.8,0-1.6,0-2.39.07a5.11,5.11,0,0,0-.53-.13c-.41-.1-.82-.2-1.23-.28-.77-.15-1.54-.26-2.32-.38-1.61-.24-3.23-.41-4.83-.72a.08.08,0,0,0,0,.16c1.61.35,3.2.82,4.81,1.17l1.4.3c-3.13.16-6.25.4-9.37.69-.1,0-.1.16,0,.15,4.25-.25,8.53-.28,12.78-.21s8.44.17,12.66.41c8.53.49,17.05,1.25,25.55,2.14,4.77.5,33.65,4.72,38.44,4.92h.06a3.05,3.05,0,0,0,.13.32l.41.78c.14.24.27.48.43.72l.23.35.12.17c0,.05.11.12.13.18S277.82,254.56,277.77,254.46Z" style="fill:#263238"></path><path d="M291.88,291c-1.52-2.44-2.83-5-4.22-7.56s-2.8-5.05-4.21-7.57c-2.8-5-12.87-22-13.86-23.14-.07-.07-.2,0-.16.1.47,1.31,6.75,12.51,8.2,15,2.89,5,5.93,9.9,8.92,14.83.86,1.41,1.75,2.8,2.61,4.2s1.79,2.78,2.59,4.22A.08.08,0,0,0,291.88,291Z" style="fill:#263238"></path><path d="M269.3,256.94c-2.52-.6-5.09-1-7.63-1.48L254,254q-7.65-1.42-15.32-2.72c-10.2-1.71-20.45-3.14-30.75-4.13-5.81-.55-11.64-.92-17.46-1.35-.13,0-.12.19,0,.19,10.38.47,20.73,1.88,31,3.35s20.32,3.07,30.45,4.78q4.29.72,8.58,1.47c2.9.5,5.81,1.12,8.73,1.49A.09.09,0,0,0,269.3,256.94Z" style="fill:#263238"></path><path d="M298.28,435.91c-2.46-.25-63.54-27.7-65.2-30.22-.64-.95,2.84-10.08,7.36-21,1-2.36,2-4.78,3-7.24,6.81-16,14.4-32.77,14.4-32.77l40.91,18.25L283.27,395.2l-3.41,7.08s18.69,21,20.22,23.93S300.73,436.15,298.28,435.91Z" style="fill:#f7a9a0"></path><path d="M298.28,435.91c-2.46-.25-63.54-27.7-65.2-30.22-.77-1.16,4.52-14.4,10.4-28.23l39.79,17.74-3.41,7.08s18.69,21,20.22,23.93S300.73,436.15,298.28,435.91Z" style="fill:#fff"></path><path d="M298.28,435.91c-2.46-.25-63.54-27.7-65.2-30.22-.64-.95,2.84-10.08,7.36-21l39.42,17.58s18.69,21,20.22,23.93S300.73,436.15,298.28,435.91Z" style="fill:#7F3E98"></path><path d="M298.5,433.07c-10.13-4.85-51.42-23.47-61.8-27.5-.09,0-.11,0,0,.06,9.93,5,51.38,23.32,61.75,27.61C298.64,433.33,298.71,433.17,298.5,433.07Z" style="fill:#263238"></path><path d="M297.14,422.25a9,9,0,0,0-7.25-.25,8.7,8.7,0,0,0-4.74,4.44c0,.06.08.11.12.05a10.43,10.43,0,0,1,11.81-4.11A.07.07,0,0,0,297.14,422.25Z" style="fill:#263238"></path><path d="M283.38,405.09c-4.07-1.9-9.47-2.59-13.53-.38-.15.08,0,.3.12.3a61.89,61.89,0,0,1,13.25.61A.28.28,0,0,0,283.38,405.09Z" style="fill:#263238"></path><path d="M286,407.74c-4.07-1.9-9.48-2.58-13.53-.38-.16.09,0,.31.12.3a62.54,62.54,0,0,1,13.25.62A.29.29,0,0,0,286,407.74Z" style="fill:#263238"></path><path d="M288.6,410.4c-4.08-1.9-9.48-2.59-13.53-.38-.16.08,0,.31.12.3a61.89,61.89,0,0,1,13.25.61A.28.28,0,0,0,288.6,410.4Z" style="fill:#263238"></path><path d="M291.21,413.05c-4.08-1.9-9.48-2.58-13.53-.38-.16.09,0,.31.12.3a62.54,62.54,0,0,1,13.25.62A.29.29,0,0,0,291.21,413.05Z" style="fill:#263238"></path><path d="M243.68,397c-4.61-2.06-7.81,5.1-3.19,7.15S248.29,399.07,243.68,397Z" style="fill:#263238"></path><path d="M292.72,396.14c-1.3-2.65-4.67-2.14-6.75-.93a23.5,23.5,0,0,0-8.43,8.8.12.12,0,0,0,.07.18c0,.33.19.73.59.66,3.82-.71,8-1,11.5-2.85C291.73,400.92,294,398.65,292.72,396.14Zm-8.94,6.45c-1.87.4-3.75.7-5.61,1.16,1.65-1.71,3.22-3.49,5-5a26.75,26.75,0,0,1,2.74-2.09c1.5-.95,7.06-2.57,5.46,2.07C290.53,401.25,286,402.12,283.78,402.59Z" style="fill:#263238"></path><path d="M266.67,401c3.32,2.15,7.46,2.79,11.21,3.82.39.11.66-.27.64-.61a.11.11,0,0,0,.09-.17,23.49,23.49,0,0,0-7.64-9.49c-2-1.39-5.29-2.18-6.81.35S264.73,399.7,266.67,401Zm-1.42-3.45c-1.2-4.76,4.21-2.67,5.62-1.59a24.37,24.37,0,0,1,2.55,2.32c1.68,1.69,3.09,3.6,4.59,5.44-1.81-.62-3.66-1.08-5.49-1.63C270.33,401.39,265.9,400.14,265.25,397.51Z" style="fill:#263238"></path><path d="M244.42,373.71l46,20.8s54.76-105.11,56.19-137.28c1.22-27.39-17.84-38-79.47-20.24l-15.09.19v10.41c6.62.88,24.3,3.65,24.3,3.65,12.86,4.86,17,6.86,16.8,7.28C261.08,323.29,244.42,373.71,244.42,373.71Z" style="fill:#455a64"></path><path d="M300.7,247c-1.86,2.47-3.58,5.05-5.22,7.68a110.61,110.61,0,0,0-31.35-8.26c-3-.38-6.07-.64-9.12-.82-.13,0-.12.19,0,.2a137.5,137.5,0,0,1,31.9,6.07c2.87.88,5.68,1.91,8.5,2.91-2,3.16-3.83,6.4-5.62,9.66a191.4,191.4,0,0,0-9,18.78c-1.48,3.55-2.92,7.13-4.19,10.76,0,.11.14.17.18.07q8.43-18.79,18.41-36.79c1.88-3.39,3.84-6.73,5.67-10.14C300.91,247,300.77,246.87,300.7,247Z" style="fill:#263238"></path><path d="M291.43,383.39c-2.68-1-5.28-2.35-7.91-3.53l-7.9-3.55c-5.26-2.36-23.45-9.89-25-10.25-.09,0-.14.13-.06.18,1.16.76,12.9,6,15.55,7.12,5.31,2.27,10.67,4.38,16,6.54,1.53.62,3.07,1.2,4.61,1.8s3.09,1.16,4.59,1.83A.08.08,0,0,0,291.43,383.39Z" style="fill:#263238"></path><path d="M300.47,251.72c-3.63,6.9-6.72,14.11-9.87,21.24s-6.2,14.23-9.16,21.41q-8.87,21.44-16.5,43.33c-2.89,8.26-5.6,16.58-8.23,24.92,0,.12.15.16.19.05,4.87-14.75,10.15-29.37,15.67-43.89s11.34-28.85,17.52-43.06q2.61-6,5.29-11.94c1.8-4,3.66-7.91,5.34-11.93C300.79,251.69,300.56,251.55,300.47,251.72Z" style="fill:#263238"></path><path d="M260.41,172c10.15,19.1,32,43.48,40.56,43.17,4.06-.15,11.35.46,16.45-4.46C328.54,200,335.64,183,339.61,170.45c1.22-3.84-23.38-13.93-25.33-10.09-5.11,10.09-10.75,23.25-11.94,23.22-4.38-.12-22.15-13.49-34.56-22.92C252.71,149.22,256.37,164.39,260.41,172Z" style="fill:#f7a9a0"></path><path d="M336.79,177c-2.47,2.38-23.25-6.51-24.14-9.92a13.74,13.74,0,0,1-.11-3.53h0A50.05,50.05,0,0,0,306,150.53c-3.5-4.66-9.22-11.19-6.78-13.17,3.55-2.88,11.78,4.5,16.25,9,.95-3.32,2.08-6.1,3.33-7.47,4.16-4.56,26.87,11.41,26.47,17.67C344.9,162.63,339.27,174.66,336.79,177Z" style="fill:#f7a9a0"></path><path d="M313.82,147.22c1.48,2.85,4-.52,4-.52s-2.44,5.72.22,8.06,5.45-1.93,5.67-2.22c-.13.3-2.23,5.62.68,7.7s5.21-2.54,5.34-2.84c0,.33-.34,4.62,2.23,5.7,4.43,1.84,5.53-9.11,8.64-11.44,0,0,4.54,4.81,4.7,4.92,0,0,1.27-10.4-2.1-14.42a3.35,3.35,0,0,0-4.1-.87s.78-3.31-1.47-5c-1.15-.88-3.58.19-3.58.19a4.18,4.18,0,0,0-1.57-4.07c-1.67-1.12-3.84.12-3.84.12s-.7-2.8-2.77-3.39C321.67,127.92,310.66,141.13,313.82,147.22Z" style="fill:#f7a9a0"></path><path d="M328.25,132.66s0-.11-.06-.07a29.81,29.81,0,0,0-10.54,14.27c-.06.19.21.36.31.17A61,61,0,0,1,328.25,132.66Z" style="fill:#263238"></path><path d="M334.06,136.37c.05-.05,0-.12-.09-.08a28,28,0,0,0-10.53,16.29c0,.23.15.48.22.22C324.85,148.42,330.15,140.32,334.06,136.37Z" style="fill:#263238"></path><path d="M329.79,157.9c1.48-6.35,4.85-11.59,9.08-16.48.05-.06,0-.13-.1-.09-2.72,1.82-5.1,5.22-6.72,8a17.22,17.22,0,0,0-2.49,8.51C329.56,158,329.75,158,329.79,157.9Z" style="fill:#263238"></path><path d="M317.7,146.73c-.07.22.33.08.26.3-.26.94-1.36,6.69.48,7.68,1.48.78,3.56-.66,4.15-1.53l1.46-2.18-.62,2.56a10.69,10.69,0,0,0-.28,3.47,3.82,3.82,0,0,0,1.35,2.84,2.21,2.21,0,0,0,2.77,0,6.68,6.68,0,0,0,2-2.7l1.24-2.85-.24,3.09a10.16,10.16,0,0,0,.13,2.58,4.2,4.2,0,0,0,1,2.18,2,2,0,0,0,2,.51,4.42,4.42,0,0,0,1.82-1.64,34.42,34.42,0,0,0,2.52-4.78c.39-.82.78-1.65,1.22-2.46a6.53,6.53,0,0,1,1.64-2.18,7,7,0,0,0-1.42,2.29c-.36.83-.69,1.68-1,2.53a30,30,0,0,1-2.33,5,5.19,5.19,0,0,1-2.11,2,2.81,2.81,0,0,1-3-.64,5.07,5.07,0,0,1-1.32-2.68,11,11,0,0,1-.18-2.87l1,.24a7.59,7.59,0,0,1-2.29,3.2,3.12,3.12,0,0,1-2.05.67,3.53,3.53,0,0,1-2-.75,4.87,4.87,0,0,1-1.72-3.59,11.88,11.88,0,0,1,.38-3.81l.85.37c-.78,1.08-2.93,2.95-5.38,2C315,154,317.21,147.83,317.7,146.73Z" style="fill:#263238"></path><path d="M317.8,146.7a6.63,6.63,0,0,1-1.64,1.08,1.47,1.47,0,0,1-1.5-.11,3,3,0,0,1-.88-1.48c-.19-.62-.36-1.28-.51-2a5.15,5.15,0,0,0-.18,2.11,3,3,0,0,0,1,2,2.18,2.18,0,0,0,1.22.39,2.31,2.31,0,0,0,1.15-.38A3.44,3.44,0,0,0,317.8,146.7Z" style="fill:#263238"></path><path d="M339.31,176.93S325,208.9,316,213s-14.54,3.52-18,3.18a9.21,9.21,0,0,1-3.7-1.57c-9.58-6.16-27.3-28.72-34.67-41.53-5.53-9.64-5.4-18.6,2.39-16.1a25.53,25.53,0,0,1,7.28,4.17c14.65,11.1,31.53,21.53,32.28,21.09s8.23-13.65,8.23-13.65Z" style="fill:#263238"></path><path d="M294.34,214.57c-9.58-6.16-27.3-28.72-34.67-41.53-5.53-9.64-5.4-18.6,2.39-16.1C266.35,164.51,285.07,197.63,294.34,214.57Z" style="fill:#37474f"></path><path d="M335.68,182.8c-1.08-.53-11.17-3.9-13.38-4.58s-11.22-3.58-13.55-4.1a.08.08,0,0,0-.05.16c2.19.94,11.26,3.88,13.5,4.63s12.29,3.86,13.44,4.05C335.74,183,335.75,182.84,335.68,182.8Z" style="fill:#37474f"></path><path d="M212.59,236.89c.13.18,65.93,1.57,66.6,1,.93-.89-5.16-62.8-14.69-78.11-2.38-3.83-13.6-6.67-18.62-1.47C226.46,178.37,212.09,236.21,212.59,236.89Z" style="fill:#7F3E98"></path><path d="M279.27,236.64l-66.47-1.19c.07-.33.15-.7.25-1.13l66.19,1.19C279.26,236,279.28,236.32,279.27,236.64Zm-.25-4.72-65.12-1.16c-.1.39-.19.77-.27,1.12l65.47,1.17C279.08,232.69,279.05,232.32,279,231.92Zm-.31-3.59-63.87-1.14-.3,1.13,64.27,1.15C278.78,229.1,278.75,228.72,278.71,228.33Zm-.35-3.58-62.53-1.12c-.11.38-.21.76-.32,1.12l63,1.13C278.44,225.51,278.4,225.13,278.36,224.75Zm-.38-3.59-61.11-1.1c-.12.38-.23.75-.33,1.12l61.56,1.11Zm-.42-3.6-59.62-1.06c-.11.38-.23.75-.34,1.12l60.09,1.07C277.65,218.32,277.6,217.94,277.56,217.56Zm-.45-3.59-58-1-.36,1.13,58.54,1C277.21,214.73,277.16,214.35,277.11,214Zm-.47-3.59-56.41-1c-.13.38-.25.76-.37,1.13l56.94,1C276.74,211.14,276.69,210.76,276.64,210.38Zm-.5-3.59-54.7-1c-.13.38-.26.75-.38,1.13l55.24,1C276.25,207.54,276.2,207.17,276.14,206.79Zm-.52-3.6-52.93-.94c-.13.38-.27.75-.4,1.12l53.5.95C275.73,203.94,275.67,203.57,275.62,203.19Zm-.56-3.59L224,198.69l-.42,1.12,51.65.92C275.18,200.35,275.12,200,275.06,199.6Zm-.59-3.59-49.11-.88c-.15.37-.29.75-.43,1.12l49.73.89C274.6,196.76,274.54,196.39,274.47,196Zm-.62-3.59-47.08-.84-.45,1.12,47.72.85C274,193.17,273.92,192.79,273.85,192.42Zm-.67-3.6L228.26,188l-.48,1.12,45.62.82C273.33,189.57,273.26,189.2,273.18,188.82Zm-.7-3.6-42.66-.76c-.17.37-.34.74-.5,1.12l43.38.77C272.63,186,272.55,185.59,272.48,185.22Zm-.77-3.6-40.24-.71c-.19.37-.36.74-.53,1.12l41,.73C271.88,182.37,271.8,182,271.71,181.62Zm-.82-3.59-37.68-.67-.57,1.12,38.51.68C271.07,178.78,271,178.41,270.89,178Zm-.91-3.6-34.91-.62-.6,1.12,35.81.64C270.18,175.19,270.09,174.81,270,174.43Zm-1-3.61-31.89-.57c-.22.37-.44.74-.65,1.12l32.87.59Zm-1.15-3.6-28.53-.51c-.25.37-.49.74-.72,1.12l29.63.53C268.08,168,268,167.59,267.83,167.22Zm-1.37-3.61-24.7-.44c-.28.37-.55.74-.81,1.12l26,.46C266.77,164.36,266.61,164,266.46,163.61Zm-1.8-3.61-20.05-.36c-.32.36-.64.74-1,1.12l21.64.38C265.09,160.74,264.88,160.36,264.66,160Zm-5.46-3.69-9.93-.17a8.94,8.94,0,0,0-2.16,1.09l14.81.26A14.11,14.11,0,0,0,259.2,156.31Z" style="opacity:0.1"></path><path d="M236.93,162.63c-28.16,21.32-52.47,50.85-50.1,60.17,2.52,9.85,22.08,20.81,39.32,23,3.53.45,14.36-25.48,10.74-26.65-2.82-.92-15.64-4.52-17.18-6.27-1.07-1.21,18.71-29.25,25.13-43.87C251.55,153.7,244.47,156.92,236.93,162.63Z" style="fill:#f7a9a0"></path><path d="M282.13,232.39,249.52,243.8a1.2,1.2,0,0,0-.88,1.9l9.52,14.42a2.78,2.78,0,0,0,2.81,1l32.61-11.41a1.2,1.2,0,0,0,.88-1.9l-9.53-14.42A2.76,2.76,0,0,0,282.13,232.39Z" style="fill:#c7c7c7"></path><path d="M283.27,234.09,250.66,245.5a1.2,1.2,0,0,0-.88,1.9l9.53,14.43a2.81,2.81,0,0,0,2.8,1l32.61-11.42a1.2,1.2,0,0,0,.88-1.9l-9.52-14.42A2.78,2.78,0,0,0,283.27,234.09Z" style="fill:#ebebeb"></path><path d="M284.6,238.89a1.47,1.47,0,1,1,.47-2A1.46,1.46,0,0,1,284.6,238.89Z" style="fill:#263238"></path><path d="M232.8,217.83S244,218.91,251.3,220c4.07.59,11,2.22,13.75,4,4.18,2.69,19.92,16.62,16.63,20.51-3,3.52-7.53-2-7.53-2s5.53,5.59,1.5,8.17-9.28-5.18-9.28-5.18,6.29,5.53,1.72,7.87c-4,2-10.94-6.28-10.94-6.28s7.23,5.08,3.37,7.56c-4.26,2.75-16.29-8.42-16.29-8.42-9.58,1.11-15.48.48-22.25-1.4C220.74,244.46,232.8,217.83,232.8,217.83Z" style="fill:#f7a9a0"></path><path d="M268.06,247.34c-.43-.6-.88-1.18-1.32-1.78a37.55,37.55,0,0,0-2.69-3.35c-1-1-2-2-3-2.94s-2.28-1.9-3.34-2.92a.08.08,0,1,0-.11.12,39.4,39.4,0,0,1,3,3.19c1,1.06,1.9,2.13,2.85,3.21s1.91,2,2.86,3c.48.51.93,1,1.38,1.57A12.55,12.55,0,0,0,269,249c.05,0,.12,0,.09-.08A8.2,8.2,0,0,0,268.06,247.34Z" style="fill:#263238"></path><path d="M275.28,243.67a57.49,57.49,0,0,0-4.86-6.34,39.19,39.19,0,0,0-5.93-5.36c-.07-.06-.17.05-.11.12,1.79,2,3.61,3.95,5.43,5.91.89,1,4.79,5.43,5.26,5.85C275.18,244,275.34,243.79,275.28,243.67Z" style="fill:#263238"></path><path d="M261.37,251a57.57,57.57,0,0,0-4.68-5.87,50.39,50.39,0,0,0-6-4.75c-.08-.05-.18,0-.11.12,1.88,1.73,3.79,3.42,5.59,5.24.87.89,4.16,4.62,5.07,5.4C261.29,251.17,261.42,251.05,261.37,251Z" style="fill:#263238"></path><path d="M238.08,218.08l-15.26,28.75s-34-9.19-36.79-24.6,36.32-50.58,48.39-58.89,19.41-9.38,9.82,9.63S219.85,211.5,221,212.48C222.05,213.31,238.08,218.08,238.08,218.08Z" style="fill:#263238"></path><path d="M218,242.8c.73-1,6-10.2,7.1-12.23s5.68-10.31,6.65-12.5a.09.09,0,0,0-.15-.08c-1.35,2-6,10.3-7.16,12.35s-6.18,11.31-6.59,12.4C217.84,242.83,218,242.86,218,242.8Z" style="fill:#37474f"></path><path d="M238.26,218s-.54.9-.71,1.17c0,0-.1.13,0,0s.49-1,.49-1c-4.59-1.08-9.17-2.27-13.69-3.7-.56-.18-1.13-.37-1.7-.59a8.36,8.36,0,0,1-1.72-.83.46.46,0,0,1-.13-.12.84.84,0,0,1-.16-.27,1.17,1.17,0,0,1,0-.5c.06-.15.12-.32.19-.46s.26-.56.39-.82c.27-.54.56-1.06.84-1.58,1.15-2.09,2.34-4.14,3.56-6.18,2.48-4.05,4.94-8.1,7.5-12.08,2.42-3.77,4.94-8,7.48-11.73.15-.22.53-.42.08.39-2.34,4.13-4.45,7.69-6.87,11.76l-7.28,12.2c-1.21,2-2.44,4.06-3.6,6.11-.29.52-.59,1-.86,1.55-.14.26-.26.51-.39.77l-.11.29a.2.2,0,0,1-.07-.06h0a.19.19,0,0,1,0,.08s0,.09,0,.06l0-.07A12.16,12.16,0,0,0,223,213l1.65.62c2.21.81,4.46,1.55,6.73,2.25Z" style="fill:#263238"></path><path d="M221.56,212.34l0,.07s0,0,0-.06a.19.19,0,0,0,0-.08h0A.2.2,0,0,0,221.56,212.34Z" style="fill:#263238"></path><path d="M253.88,153.55c-9,1-6.82,7.31-2.73,11.3s9,5.48,12.2,4.49,3.28-6.81,2.47-10.08C265.21,156.75,261.27,152.73,253.88,153.55Z" style="fill:#263238"></path><path d="M261.74,167.65c-2.77.52-9.3-3.87-12.18-7.93-.19-.28-.1-3.48-.17-7.36-.06-2.36-.17-5-.45-7.37l15.39,1.9a38.25,38.25,0,0,0-.38,9.33,5.52,5.52,0,0,0,.22,1s0,.1,0,.16C264.73,159.17,266.08,166.83,261.74,167.65Z" style="fill:#f7a9a0"></path><path d="M264.16,157.19l0,.16a9.31,9.31,0,0,1-1.54.26c-8.69.81-12.09-9.61-12.86-12.5l14.52,1.78a38.25,38.25,0,0,0-.38,9.33A6.61,6.61,0,0,0,264.16,157.19Z" style="fill:#263238"></path><path d="M246.67,127.43c-1.46,5.39,1.88,20.72,5.79,24,5.67,4.8,14.7,5,18.72-1.78,3.89-6.55-.81-26.46-5.15-29.44C259.63,115.85,248.81,119.46,246.67,127.43Z" style="fill:#f7a9a0"></path><path d="M259.17,136.39s-.07.07-.06.11c.3,1,.47,2.23-.37,2.81,0,0,0,.07,0,.05C259.85,138.91,259.61,137.31,259.17,136.39Z" style="fill:#263238"></path><path d="M258,135.56c-1.68.3-1,3.63.6,3.36S259.38,135.31,258,135.56Z" style="fill:#263238"></path><path d="M265.4,134.9s.09,0,.1.07c.19,1,.59,2.2,1.6,2.34,0,0,0,.06,0,.06C265.92,137.46,265.42,135.92,265.4,134.9Z" style="fill:#263238"></path><path d="M266.09,133.62c1.63-.49,2.49,2.82,1,3.27S264.72,134,266.09,133.62Z" style="fill:#263238"></path><path d="M256.33,134.32a13.06,13.06,0,0,0,1.19-.73c.46-.29.85-.47,1.08-1a.72.72,0,0,0-.3-.82,1.76,1.76,0,0,0-1.8.2,2.6,2.6,0,0,0-1.24,1.43A.77.77,0,0,0,256.33,134.32Z" style="fill:#263238"></path><path d="M267,130.19a10.93,10.93,0,0,1-1.4-.06,2.25,2.25,0,0,1-1.42-.32.71.71,0,0,1-.14-.87,1.76,1.76,0,0,1,1.67-.71,2.64,2.64,0,0,1,1.78.64A.77.77,0,0,1,267,130.19Z" style="fill:#263238"></path><path d="M260.84,146.77c.3.19.62.47,1,.42a2.75,2.75,0,0,0,1.05-.5,0,0,0,0,1,.06,0,1.41,1.41,0,0,1-1.19.85,1.14,1.14,0,0,1-1-.74C260.72,146.78,260.8,146.75,260.84,146.77Z" style="fill:#263238"></path><path d="M261.19,142.88a3.63,3.63,0,0,0,2.69,1.06,4.71,4.71,0,0,0,1.28-.22l.23-.08.22-.08a.28.28,0,0,0,.16-.28h0a.3.3,0,0,0,0-.1h0l0-.09c-.15-.8-.49-2-.49-2,.32.08,1.95.43,1.83,0a53.59,53.59,0,0,0-3.67-10.35.1.1,0,0,0-.18.07c.78,3.29,2.14,6.43,3,9.73a6.55,6.55,0,0,0-1.77-.14c-.11.06.69,2.29.73,2.66,0,0,0,0,0,0a5,5,0,0,1-3.88-.34C261.18,142.72,261.11,142.81,261.19,142.88Z" style="fill:#263238"></path><path d="M264.6,143.42a4.26,4.26,0,0,1-1.39,1.65,1.89,1.89,0,0,1-1.12.32c-.88,0-1.06-.79-1-1.47a4.9,4.9,0,0,1,.15-1.07A5.52,5.52,0,0,0,264.6,143.42Z" style="fill:#263238"></path><path d="M263.21,145.07a1.89,1.89,0,0,1-1.12.32c-.88,0-1.06-.79-1-1.47A2,2,0,0,1,263.21,145.07Z" style="fill:#ff9bbc"></path><path d="M246.88,141.33c2.86-1.13,3.39-11.17,3.39-11.17s.38,4.2,1.16,4,3.43-6.19,3.4-10.31a32.23,32.23,0,0,0,7.82,2.91c3.84.74,8,.09,7.89-.55-.19-1.89-2.4-6.65-5.13-8.15a13.43,13.43,0,0,0-13.44-.32c-5.87,2.94-7.08,7-7.68,10.14S245.82,141.74,246.88,141.33Z" style="fill:#263238"></path><path d="M250.38,139.89s-3.75-4.8-5.95-3.44.81,8.45,3.52,9.3a2.7,2.7,0,0,0,3.54-1.65Z" style="fill:#f7a9a0"></path><path d="M245.35,138.46s0,.06,0,.08c1.9.65,3,2.32,3.75,4.08a1.49,1.49,0,0,0-2.25-.29c-.05,0,0,.11.06.1a1.63,1.63,0,0,1,1.85.48,7.77,7.77,0,0,1,1,1.43c.09.16.39.06.32-.13,0,0,0,0,0,0C249.93,141.79,247.91,138.57,245.35,138.46Z" style="fill:#263238"></path><path d="M262.43,116.36a22.63,22.63,0,0,0-6.33-2.06c-2.47-.37-10.28,0-12.19,1.57s-2.57,8.85-2.65,9.93.26,7.58,2.57,9.2,2.8-9.41,6.6-13S262.43,116.36,262.43,116.36Z" style="fill:#7F3E98"></path><path d="M262.44,116.36s-8.21,2.09-12,5.66-4.28,14.6-6.6,13c-1-.71-1.5-1.75-1.89-3.49.57-3.21,2-8.18,4.76-11.59,2.6-3.18,7-4.72,11.62-5.14A26.46,26.46,0,0,1,262.44,116.36Z" style="opacity:0.1"></path><path d="M244.32,141.57c.28-2.94,3.45-10.74,6.7-15.18s12.52-6.86,13.81-6.75c3.13.25,3.66,1.85,4.16,1.58s-2.16-3.32-3-3.87-3.21-1.85-4.57-1.85-9.77.64-12.91,4.15-7.68,13.43-7,16c.17.62,1,1,1.22,1.92.32,1.15.53,2.49.85,3.3C243.88,141.53,244.29,141.82,244.32,141.57Z" style="fill:#7F3E98"></path><path d="M251.79,124.38a14.19,14.19,0,0,1-2-1.54,11,11,0,0,1-1.7-1.9,0,0,0,0,0-.08,0,8.19,8.19,0,0,0,1.53,2.12,6.84,6.84,0,0,0,2.18,1.42C251.8,124.57,251.86,124.43,251.79,124.38Z" style="fill:#263238"></path><path d="M244.36,138.63a5.81,5.81,0,0,0-.31-.61,3.82,3.82,0,0,1-.26-.74,6.39,6.39,0,0,0-.3-1.43,5.58,5.58,0,0,0-.66-1,1.94,1.94,0,0,1-.55-1.21.05.05,0,0,0-.1,0,5,5,0,0,0,.93,2.3,9.88,9.88,0,0,1,.37,1.54,2.25,2.25,0,0,0,.75,1.24C244.28,138.76,244.39,138.7,244.36,138.63Z" style="fill:#263238"></path><path d="M245.45,135.47a11.08,11.08,0,0,1-.8-1,10.15,10.15,0,0,1-.61-1.12c-.18-.38-.32-.77-.49-1.15s-.46-.88-.63-1.34c0-.06-.11,0-.09.05.18.47.29,1,.45,1.47a10.89,10.89,0,0,0,.54,1.21,6.2,6.2,0,0,0,.67,1.07,3,3,0,0,0,.92.86A0,0,0,0,0,245.45,135.47Z" style="fill:#263238"></path><path d="M246.59,132.62a8.06,8.06,0,0,1-1.56-1.84c-.41-.67-.79-1.37-1.15-2.07,0-.05-.11,0-.09,0a9.79,9.79,0,0,0,1,2.26,4.74,4.74,0,0,0,.73.94,5.14,5.14,0,0,0,1,.76S246.63,132.66,246.59,132.62Z" style="fill:#263238"></path><path d="M247.82,129.9a3,3,0,0,1-.77-.81c-.24-.33-.48-.67-.71-1s-.45-.67-.66-1a3,3,0,0,1-.51-1.09,0,0,0,0,0-.09,0,2.9,2.9,0,0,0,.31,1.15,7.37,7.37,0,0,0,.64,1.17,9.82,9.82,0,0,0,.79,1,1.91,1.91,0,0,0,.94.67A.07.07,0,0,0,247.82,129.9Z" style="fill:#263238"></path><path d="M248.74,126.43c-.27-.28-.53-.55-.78-.84s-.47-.6-.69-.91-.48-.64-.69-1c0,0-.12,0-.09,0a7.65,7.65,0,0,0,.52,1.08,7.23,7.23,0,0,0,.68,1,9.38,9.38,0,0,0,.79.87,3.13,3.13,0,0,0,.94.69c.06,0,.12,0,.08-.1A5.91,5.91,0,0,0,248.74,126.43Z" style="fill:#263238"></path><path d="M254.08,122.76c-.28-.36-.56-.72-.87-1.06a13.9,13.9,0,0,0-3.27-2.57s-.11,0-.06.07c1.36,1.22,2.78,2.39,4.13,3.63A0,0,0,0,0,254.08,122.76Z" style="fill:#263238"></path><path d="M255.92,120.29a5.62,5.62,0,0,0-1-1,12.91,12.91,0,0,0-2.48-1.46c-.06,0-.11,0-.06.08.75.52,1.51,1,2.23,1.6a11,11,0,0,1,1,.89c.33.32.57.7.88,1,0,0,.07,0,.06,0A3.23,3.23,0,0,0,255.92,120.29Z" style="fill:#263238"></path><path d="M258.39,119.19a5.83,5.83,0,0,0-.9-1,7.35,7.35,0,0,0-2.11-1.32.05.05,0,0,0,0,.09,14.84,14.84,0,0,1,2,1.52c.31.28.6.58.9.87s.55.66.87.92c0,0,.06,0,0,0A6.19,6.19,0,0,0,258.39,119.19Z" style="fill:#263238"></path><path d="M260.2,117.77c-.3-.26-.62-.5-.94-.74a3.55,3.55,0,0,0-1-.6c-.05,0-.08,0,0,.09.59.49,1.17,1,1.75,1.5a9.74,9.74,0,0,1,1.34,1.66s.06,0,.06,0A3.77,3.77,0,0,0,260.2,117.77Z" style="fill:#263238"></path><path d="M262.42,117.35a6.09,6.09,0,0,0-1.94-1.27c-.05,0-.09.06,0,.09a7.3,7.3,0,0,1,1.75,1.38,9.81,9.81,0,0,1,1.37,1.78s.08,0,.06,0A4.91,4.91,0,0,0,262.42,117.35Z" style="fill:#263238"></path><path d="M265.28,118.73a4,4,0,0,0-.25-.45,4.58,4.58,0,0,0-.63-.82,11,11,0,0,0-1.64-1.32c-.05,0-.11,0-.05.08a9,9,0,0,1,1.53,1.36,8,8,0,0,1,.61.8,4.23,4.23,0,0,1,.25.42c.08.13.14.3.23.42a.05.05,0,0,0,.09,0A1.29,1.29,0,0,0,265.28,118.73Z" style="fill:#263238"></path><path d="M267,118.93a6.67,6.67,0,0,0-.52-.67,6.79,6.79,0,0,0-.6-.6c-.22-.2-.44-.38-.65-.58,0,0-.12,0-.06.07a6,6,0,0,1,.6.63l.54.63.53.63a6.89,6.89,0,0,0,.54.65,0,0,0,0,0,.06,0A3.56,3.56,0,0,0,267,118.93Z" style="fill:#263238"></path></g></svg>