<svg id="visual" viewBox="0 0 900 600" width="900" height="600" xmlns="http://www.w3.org/2000/svg" xmlns:xlink="http://www.w3.org/1999/xlink" version="1.1"><rect x="0" y="0" width="900" height="600" fill="#fff"></rect><defs><linearGradient id="grad1_0" x1="33.3%" y1="0%" x2="100%" y2="100%"><stop offset="20%" stop-color="#d7d7d7" stop-opacity="1"></stop><stop offset="80%" stop-color="#d7d7d7" stop-opacity="1"></stop></linearGradient></defs><defs><linearGradient id="grad1_1" x1="33.3%" y1="0%" x2="100%" y2="100%"><stop offset="20%" stop-color="#d7d7d7" stop-opacity="1"></stop><stop offset="80%" stop-color="#ebebeb" stop-opacity="1"></stop></linearGradient></defs><defs><linearGradient id="grad1_2" x1="33.3%" y1="0%" x2="100%" y2="100%"><stop offset="20%" stop-color="#ffffff" stop-opacity="1"></stop><stop offset="80%" stop-color="#ebebeb" stop-opacity="1"></stop></linearGradient></defs><defs><linearGradient id="grad2_0" x1="0%" y1="0%" x2="66.7%" y2="100%"><stop offset="20%" stop-color="#d7d7d7" stop-opacity="1"></stop><stop offset="80%" stop-color="#d7d7d7" stop-opacity="1"></stop></linearGradient></defs><defs><linearGradient id="grad2_1" x1="0%" y1="0%" x2="66.7%" y2="100%"><stop offset="20%" stop-color="#ebebeb" stop-opacity="1"></stop><stop offset="80%" stop-color="#d7d7d7" stop-opacity="1"></stop></linearGradient></defs><defs><linearGradient id="grad2_2" x1="0%" y1="0%" x2="66.7%" y2="100%"><stop offset="20%" stop-color="#ebebeb" stop-opacity="1"></stop><stop offset="80%" stop-color="#ffffff" stop-opacity="1"></stop></linearGradient></defs><g transform="translate(900, 0)"><path d="M0 459.7C-43.4 403.8 -86.7 348 -133.6 322.4C-180.4 296.9 -230.6 301.7 -284.3 284.3C-337.9 266.8 -394.9 227 -424.7 175.9C-454.5 124.8 -457.1 62.4 -459.7 0L0 0Z" fill="#f5f5f5"></path><path d="M0 306.5C-28.9 269.2 -57.8 232 -89 215C-120.2 197.9 -153.7 201.2 -189.5 189.5C-225.3 177.9 -263.3 151.3 -283.1 117.3C-303 83.2 -304.7 41.6 -306.5 0L0 0Z" fill="#e1e1e1"></path><path d="M0 153.2C-14.5 134.6 -28.9 116 -44.5 107.5C-60.1 99 -76.9 100.6 -94.8 94.8C-112.6 88.9 -131.6 75.7 -141.6 58.6C-151.5 41.6 -152.4 20.8 -153.2 0L0 0Z" fill="#d7d7d7"></path></g><g transform="translate(0, 600)"><path d="M0 -459.7C65.3 -459.6 130.6 -459.5 175.9 -424.7C221.3 -389.9 246.6 -320.4 268.7 -268.7C290.8 -217 309.6 -183 340.9 -141.2C372.2 -99.4 416 -49.7 459.7 0L0 0Z" fill="#f5f5f5"></path><path d="M0 -306.5C43.5 -306.4 87.1 -306.3 117.3 -283.1C147.5 -259.9 164.4 -213.6 179.1 -179.1C193.9 -144.7 206.4 -122 227.3 -94.1C248.1 -66.3 277.3 -33.1 306.5 0L0 0Z" fill="#e1e1e1"></path><path d="M0 -153.2C21.8 -153.2 43.5 -153.2 58.6 -141.6C73.8 -130 82.2 -106.8 89.6 -89.6C96.9 -72.3 103.2 -61 113.6 -47.1C124.1 -33.1 138.7 -16.6 153.2 0L0 0Z" fill="#d7d7d7"></path></g></svg>