<svg id="visual" viewBox="0 0 900 600" width="900" height="600" xmlns="http://www.w3.org/2000/svg" xmlns:xlink="http://www.w3.org/1999/xlink" version="1.1"><path d="M0 366L15 373.2C30 380.3 60 394.7 90 394.8C120 395 150 381 180 378.7C210 376.3 240 385.7 270 393.3C300 401 330 407 360 400.8C390 394.7 420 376.3 450 371.2C480 366 510 374 540 383.2C570 392.3 600 402.7 630 402.7C660 402.7 690 392.3 720 393.5C750 394.7 780 407.3 810 402.7C840 398 870 376 885 365L900 354L900 601L885 601C870 601 840 601 810 601C780 601 750 601 720 601C690 601 660 601 630 601C600 601 570 601 540 601C510 601 480 601 450 601C420 601 390 601 360 601C330 601 300 601 270 601C240 601 210 601 180 601C150 601 120 601 90 601C60 601 30 601 15 601L0 601Z" fill="#151515"></path><path d="M0 409L15 408.7C30 408.3 60 407.7 90 406.7C120 405.7 150 404.3 180 405.7C210 407 240 411 270 414.8C300 418.7 330 422.3 360 425.3C390 428.3 420 430.7 450 429.5C480 428.3 510 423.7 540 419.8C570 416 600 413 630 413C660 413 690 416 720 419.3C750 422.7 780 426.3 810 425.5C840 424.7 870 419.3 885 416.7L900 414L900 601L885 601C870 601 840 601 810 601C780 601 750 601 720 601C690 601 660 601 630 601C600 601 570 601 540 601C510 601 480 601 450 601C420 601 390 601 360 601C330 601 300 601 270 601C240 601 210 601 180 601C150 601 120 601 90 601C60 601 30 601 15 601L0 601Z" fill="#131313"></path><path d="M0 490L15 489.3C30 488.7 60 487.3 90 483.5C120 479.7 150 473.3 180 467.8C210 462.3 240 457.7 270 462.3C300 467 330 481 360 479.7C390 478.3 420 461.7 450 452.7C480 443.7 510 442.3 540 447.3C570 452.3 600 463.7 630 466.5C660 469.3 690 463.7 720 466.3C750 469 780 480 810 479.2C840 478.3 870 465.7 885 459.3L900 453L900 601L885 601C870 601 840 601 810 601C780 601 750 601 720 601C690 601 660 601 630 601C600 601 570 601 540 601C510 601 480 601 450 601C420 601 390 601 360 601C330 601 300 601 270 601C240 601 210 601 180 601C150 601 120 601 90 601C60 601 30 601 15 601L0 601Z" fill="#101010"></path><path d="M0 505L15 506.7C30 508.3 60 511.7 90 509.8C120 508 150 501 180 496.3C210 491.7 240 489.3 270 489.5C300 489.7 330 492.3 360 498.3C390 504.3 420 513.7 450 512.8C480 512 510 501 540 502C570 503 600 516 630 517C660 518 690 507 720 506.5C750 506 780 516 810 518.2C840 520.3 870 514.7 885 511.8L900 509L900 601L885 601C870 601 840 601 810 601C780 601 750 601 720 601C690 601 660 601 630 601C600 601 570 601 540 601C510 601 480 601 450 601C420 601 390 601 360 601C330 601 300 601 270 601C240 601 210 601 180 601C150 601 120 601 90 601C60 601 30 601 15 601L0 601Z" fill="#0d0d0d"></path><path d="M0 553L15 551.2C30 549.3 60 545.7 90 543.3C120 541 150 540 180 539.7C210 539.3 240 539.7 270 543.2C300 546.7 330 553.3 360 553.5C390 553.7 420 547.3 450 543.2C480 539 510 537 540 536.8C570 536.7 600 538.3 630 538.5C660 538.7 690 537.3 720 536.5C750 535.7 780 535.3 810 537.8C840 540.3 870 545.7 885 548.3L900 551L900 601L885 601C870 601 840 601 810 601C780 601 750 601 720 601C690 601 660 601 630 601C600 601 570 601 540 601C510 601 480 601 450 601C420 601 390 601 360 601C330 601 300 601 270 601C240 601 210 601 180 601C150 601 120 601 90 601C60 601 30 601 15 601L0 601Z" fill="#090909"></path></svg>