<svg id="visual" viewBox="0 0 900 600" width="900" height="600" xmlns="http://www.w3.org/2000/svg" xmlns:xlink="http://www.w3.org/1999/xlink" version="1.1"><path d="M0 380L21.5 385.3C43 390.7 86 401.3 128.8 407.2C171.7 413 214.3 414 257.2 407.8C300 401.7 343 388.3 385.8 385.3C428.7 382.3 471.3 389.7 514.2 386.3C557 383 600 369 642.8 364.8C685.7 360.7 728.3 366.3 771.2 371.2C814 376 857 380 878.5 382L900 384L900 601L878.5 601C857 601 814 601 771.2 601C728.3 601 685.7 601 642.8 601C600 601 557 601 514.2 601C471.3 601 428.7 601 385.8 601C343 601 300 601 257.2 601C214.3 601 171.7 601 128.8 601C86 601 43 601 21.5 601L0 601Z" fill="#e8e8e8"></path><path d="M0 424L21.5 419.5C43 415 86 406 128.8 398.5C171.7 391 214.3 385 257.2 385.7C300 386.3 343 393.7 385.8 405.2C428.7 416.7 471.3 432.3 514.2 441.5C557 450.7 600 453.3 642.8 450.3C685.7 447.3 728.3 438.7 771.2 428.3C814 418 857 406 878.5 400L900 394L900 601L878.5 601C857 601 814 601 771.2 601C728.3 601 685.7 601 642.8 601C600 601 557 601 514.2 601C471.3 601 428.7 601 385.8 601C343 601 300 601 257.2 601C214.3 601 171.7 601 128.8 601C86 601 43 601 21.5 601L0 601Z" fill="#d6d6d6"></path><path d="M0 454L21.5 449.5C43 445 86 436 128.8 437.3C171.7 438.7 214.3 450.3 257.2 457.8C300 465.3 343 468.7 385.8 467.3C428.7 466 471.3 460 514.2 454.5C557 449 600 444 642.8 449C685.7 454 728.3 469 771.2 469.5C814 470 857 456 878.5 449L900 442L900 601L878.5 601C857 601 814 601 771.2 601C728.3 601 685.7 601 642.8 601C600 601 557 601 514.2 601C471.3 601 428.7 601 385.8 601C343 601 300 601 257.2 601C214.3 601 171.7 601 128.8 601C86 601 43 601 21.5 601L0 601Z" fill="#c4c4c4"></path><path d="M0 492L21.5 490.7C43 489.3 86 486.7 128.8 490.3C171.7 494 214.3 504 257.2 507.2C300 510.3 343 506.7 385.8 498.8C428.7 491 471.3 479 514.2 474.5C557 470 600 473 642.8 476.7C685.7 480.3 728.3 484.7 771.2 484.2C814 483.7 857 478.3 878.5 475.7L900 473L900 601L878.5 601C857 601 814 601 771.2 601C728.3 601 685.7 601 642.8 601C600 601 557 601 514.2 601C471.3 601 428.7 601 385.8 601C343 601 300 601 257.2 601C214.3 601 171.7 601 128.8 601C86 601 43 601 21.5 601L0 601Z" fill="#b3b3b3"></path><path d="M0 543L21.5 540.8C43 538.7 86 534.3 128.8 529.7C171.7 525 214.3 520 257.2 522.2C300 524.3 343 533.7 385.8 539.8C428.7 546 471.3 549 514.2 550.2C557 551.3 600 550.7 642.8 546.8C685.7 543 728.3 536 771.2 537.7C814 539.3 857 549.7 878.5 554.8L900 560L900 601L878.5 601C857 601 814 601 771.2 601C728.3 601 685.7 601 642.8 601C600 601 557 601 514.2 601C471.3 601 428.7 601 385.8 601C343 601 300 601 257.2 601C214.3 601 171.7 601 128.8 601C86 601 43 601 21.5 601L0 601Z" fill="#a2a2a2"></path></svg>